<?xml version="1.0" encoding="UTF-8"?>
<svg data-bbox="4.972 0.001 37.591 47.999" xmlns="http://www.w3.org/2000/svg" viewBox="0 0 48 48" height="48" width="48" data-type="color">
    <g>
        <path fill="#00298B" d="M42.492 13.313a.3.3 0 0 0-.294-.093l-5.128 1.567-4.963-10.203a.3.3 0 0 0-.134-.137l-5.718-2.9a.294.294 0 0 0-.387.111l-1.476 2.524-5.115-1.46L20.374.41a.3.3 0 0 0-.026-.277.3.3 0 0 0-.246-.132h-7.89A.3.3 0 0 0 12 .09L5.054 7.457a.3.3 0 0 0-.082.203l.042 8.698c0 .078.031.153.087.209l4.307 4.355c.056.055.13.086.209.086H39.39c.12 0 .228-.072.273-.184l2.879-7.205a.3.3 0 0 0-.05-.304zm-6.288 1.019-3.933-2.25c-.087-.05-.191-.105-.28-.092l-6.784 1.062 6.56-7.806 4.437 9.085zm-11.396-9.7 1.424-2.437 5.14 2.603-6.564 7.811zm-.59.11v8.112l-6.874-5.542 1.703-4.044 5.173 1.475zM12.342.588h7.32l-2.895 6.678H6zM5.603 7.853h10.545L5.603 15.76zm4.135 12.564-3.958-4.05 11.122-8.442 4.143 12.491-11.307.003zm11.929-.002L17.655 8.32l6.533 5.267-1.432 6.828zm3.09-6.668 6.382-.993-7.646 7.102zm-.998 6.67 8.146-7.582 1.282 7.58zm10.025-.002-1.273-7.52 4.16 2.43 2.27 5.092zm5.594-.454-2.054-4.63 4.452-1.402z" data-color="1"/>
        <path fill="#00298B" d="M39.531 22.655a.3.3 0 0 0-.255-.148H17.3a.29.29 0 0 0-.258.153.3.3 0 0 0 .01.3l4.442 7.041-1.479 4.421a.3.3 0 0 0 0 .185l4.367 13.19a.295.295 0 0 0 .416.17l5.626-2.875a.3.3 0 0 0 .136-.145l4.496-10.45 2.886-2.866a.3.3 0 0 0 .087-.208V25.64l1.502-2.688a.29.29 0 0 0 0-.295zm-21.695.44H31.29l-9.323 6.547-4.129-6.546m13.442.641-1.139 6.28-.002.015-3.867 3.902-3.883-3.868zm-10.67 10.78 1.357-4.041 3.75 3.736-2.422 8.326zm4.227 12.767-1.242-3.823c.01-.017 2.362-8.387 2.362-8.387l3.954 9.617zm5.463-3.223-3.7-8.96 5.255 5.226zm4.34-9.983a.6.6 0 0 0-.124.183l-2.41 5.484-5.416-5.396 3.959-3.994 6.55 1.185zm2.8-8.44v5.345l-6.656-1.202 1.217-6.684h.246l5.193 2.526zm.233-.557-4.023-1.985h5.113z" data-color="1"/>
    </g>
</svg>
